<svg width="33" height="40" viewBox="0 0 33 40" fill="none" xmlns="http://www.w3.org/2000/svg">
<path d="M31.5049 3.15125L16.5049 0.02625C16.3368 -0.00875 16.1632 -0.00875 15.9951 0.02625L0.995078 3.15125C0.415391 3.27203 0 3.78289 0 4.375V21.5809C0 24.1713 0.66375 26.7382 1.91953 29.0039C3.17531 31.2696 5.00016 33.193 7.19687 34.5659L15.5875 39.81C15.7902 39.9367 16.0201 40 16.25 40C16.4799 40 16.7098 39.9366 16.9125 39.81L25.3031 34.5659C27.4998 33.193 29.3247 31.2697 30.5805 29.0039C31.8363 26.7382 32.5 24.1713 32.5 21.5809V4.375C32.5 3.78289 32.0845 3.27203 31.5049 3.15125ZM17.5 27.6347V28.0897C17.5 28.7627 16.9827 29.3419 16.3105 29.3736C15.5926 29.4073 15 28.8354 15 28.125V27.6365C15 27.465 14.8875 27.3154 14.724 27.2635C12.9977 26.7152 11.6663 25.257 11.3305 23.3946C11.2072 22.7111 11.632 22.03 12.3139 21.898C13.0069 21.7638 13.6695 22.2271 13.7852 22.9187C13.9966 24.1817 15.1236 25.0821 16.4252 24.9941C17.655 24.911 18.653 23.9167 18.7431 22.6874C18.8503 21.2245 17.6905 20 16.25 20C13.493 20 11.25 17.757 11.25 15C11.25 12.7743 12.7118 10.8836 14.7258 10.2376C14.8884 10.1854 15 10.0361 15 9.86531V9.41031C15 8.73727 15.5173 8.15812 16.1895 8.12641C16.9073 8.09258 17.5 8.66461 17.5 9.375V9.86352C17.5 10.035 17.6125 10.1845 17.7759 10.2365C19.5217 10.791 20.8637 12.276 21.1805 14.1687C21.2945 14.8495 20.8349 15.4939 20.1541 15.6079C19.4729 15.7221 18.8288 15.2623 18.7148 14.5814C18.5034 13.3184 17.3764 12.418 16.0748 12.5059C14.845 12.5891 13.847 13.5834 13.7569 14.8127C13.6497 16.2754 14.8095 17.5 16.25 17.5C19.007 17.5 21.25 19.743 21.25 22.5C21.25 24.7257 19.7882 26.6164 17.7742 27.2624C17.6116 27.3146 17.5 27.4639 17.5 27.6347Z" fill="#4C5BD4"/>
</svg>
