<svg width="40" height="39" viewBox="0 0 40 39" fill="none" xmlns="http://www.w3.org/2000/svg">
<path d="M24.1675 14.7849C24.1675 12.8374 22.5825 11.2524 20.635 11.2524H19.3675C18.7975 11.2524 18.335 10.7874 18.335 10.2024C18.335 9.63242 18.8 9.16992 19.3675 9.16992H22.9175C23.6075 9.16992 24.1675 8.60992 24.1675 7.91992C24.1675 7.22992 23.6075 6.66992 22.9175 6.66992H21.25V5.41992C21.25 4.72992 20.69 4.16992 20 4.16992C19.31 4.16992 18.75 4.72992 18.75 5.41992V6.73242C17.095 7.02742 15.8325 8.46742 15.8325 10.2199C15.8325 12.1674 17.4175 13.7524 19.365 13.7524H20.6325C21.2025 13.7524 21.665 14.2174 21.665 14.8024C21.665 15.3724 21.2 15.8349 20.6325 15.8349H17.0825C16.3925 15.8349 15.8325 16.3949 15.8325 17.0849C15.8325 17.7749 16.3925 18.3349 17.0825 18.3349H18.75V19.5849C18.75 20.2749 19.31 20.8349 20 20.8349C20.69 20.8349 21.25 20.2749 21.25 19.5849V18.2724C22.905 17.9774 24.1675 16.5349 24.1675 14.7849Z" fill="#4C5BD4"/>
<path d="M6.6675 24.1675C5.7475 24.1675 5 23.42 5 22.5V5C5 2.2425 7.2425 0 10 0H30C32.7575 0 35 2.2425 35 5V22.5C35 23.42 34.2525 24.1675 33.3325 24.1675C32.4125 24.1675 31.665 23.42 31.665 22.5V5C31.665 4.08 30.9175 3.3325 29.9975 3.3325H9.9975C9.0775 3.3325 8.33 4.08 8.33 5V22.5C8.3325 23.42 7.5875 24.1675 6.6675 24.1675Z" fill="#4C5BD4"/>
<path d="M40 15.3125C40 13.48 39.0025 11.7975 37.395 10.9225L33.335 8.70752V12.505L35.8 13.85C36.335 14.1425 36.6675 14.7025 36.6675 15.3125V17.395L20.9775 25.59C20.375 25.9025 19.6275 25.9025 19.03 25.5925L3.335 17.395V15.3125C3.335 14.7025 3.6675 14.1425 4.205 13.85L6.67 12.505V8.70752L2.61 10.9225C0.997499 11.8 0 13.4825 0 15.3125V33.3325C0 36.09 2.2425 38.3325 5 38.3325H35C37.7575 38.3325 40 36.09 40 33.3325V15.3125Z" fill="#4C5BD4"/>
</svg>
