<svg width="40" height="40" viewBox="0 0 40 40" fill="none" xmlns="http://www.w3.org/2000/svg">
<path d="M29.1658 18.3013C23.1937 18.3013 18.334 23.161 18.334 29.1331C18.334 35.1052 23.1937 39.9649 29.1658 39.9649C35.1379 39.9649 39.9976 35.1052 39.9976 29.1331C39.9976 23.161 35.1379 18.3013 29.1658 18.3013ZM34.4605 34.1678C34.1305 34.5803 33.6455 34.7927 33.1581 34.7927C32.7931 34.7927 32.4256 34.6727 32.1181 34.4278L28.1234 31.233C27.7284 30.918 27.4984 30.438 27.4984 29.9305V24.3409C27.4984 23.421 28.2459 22.6735 29.1658 22.6735C30.0858 22.6735 30.8332 23.421 30.8332 24.3409V29.1306L34.2005 31.8254C34.9179 32.4004 35.0354 33.4478 34.4605 34.1678Z" fill="#4C5BD4"/>
<path d="M17.849 20.6163C17.1315 21.5488 16.5315 22.5987 16.0816 23.7161H9.66447C8.74702 23.7161 7.99707 22.9662 7.99707 22.0487C7.99707 21.1313 8.74702 20.3813 9.66447 20.3813H17.014C17.3165 20.3838 17.599 20.4663 17.849 20.6163Z" fill="#4C5BD4"/>
<path d="M25.5159 15.3842V15.4517C24.1835 15.8017 22.9336 16.3341 21.7837 17.0516H9.66691C8.74946 17.0516 7.99951 16.3016 7.99951 15.3842C7.99951 14.4667 8.74946 13.7168 9.66691 13.7168H23.8485C24.766 13.7168 25.5159 14.4667 25.5159 15.3842Z" fill="#4C5BD4"/>
<path d="M25.4158 10.3844H9.67179C8.75185 10.3844 8.00439 9.6369 8.00439 8.71696C8.00439 7.79701 8.75185 7.04956 9.67179 7.04956H25.4158C26.3358 7.04956 27.0832 7.79701 27.0832 8.71696C27.0832 9.6369 26.3358 10.3844 25.4158 10.3844Z" fill="#4C5BD4"/>
<path d="M35.8153 0.267484C35.5653 0.117494 35.2978 0 34.9978 0H8.33198C5.58215 0 3.33229 2.24986 3.33229 4.99969V28.3307H1.6674C0.749953 28.3332 0 29.0832 0 30.0006V34.9328C0 37.6826 2.24986 39.9325 4.99969 39.9325H19.9988C16.9489 37.3327 14.9991 33.4504 14.9991 29.1332C14.9991 28.8657 14.9991 28.6007 15.0166 28.3332H6.66708V5.00219C6.66708 4.08475 7.41704 3.33479 8.33448 3.33479H28.9157C28.5482 4.10225 28.3332 4.93469 28.3332 5.83464V14.9841C28.6157 14.9666 28.8832 14.9666 29.1657 14.9666C30.0156 14.9666 30.8481 15.0491 31.6655 15.199V9.99938H38.3326C39.25 9.99938 40 9.24942 40 8.33198V5.83214C39.9975 3.2023 38.2301 0.984939 35.8153 0.267484Z" fill="#4C5BD4"/>
</svg>
