<svg width="40" height="37" viewBox="0 0 40 37" fill="none" xmlns="http://www.w3.org/2000/svg">
<path d="M37.6562 0H2.34375C1.05156 0 0 1.05156 0 2.34375V25.625C0 26.9172 1.05156 27.9688 2.34375 27.9688H37.6562C38.9484 27.9688 40 26.9172 40 25.625V2.34375C40 1.05156 38.9484 0 37.6562 0Z" fill="#4C5BD4"/>
<path d="M32.5 33.75H26.1719V30.3125H13.8281V33.75H7.5C6.85313 33.75 6.32812 34.275 6.32812 34.9219C6.32812 35.5687 6.85313 36.0938 7.5 36.0938H32.5C33.1469 36.0938 33.6719 35.5687 33.6719 34.9219C33.6719 34.275 33.1469 33.75 32.5 33.75Z" fill="#4C5BD4"/>
</svg>
