<svg width="40" height="40" viewBox="0 0 40 40" fill="none" xmlns="http://www.w3.org/2000/svg">
<path d="M32.2559 12.9172H27.4776C25.5243 12.9172 23.936 11.3289 23.936 9.37559C23.936 8.35061 24.3794 7.43396 25.0777 6.7873C23.4977 6.18065 21.7911 5.83398 19.9994 5.83398C12.1762 5.83398 5.83301 12.1772 5.83301 20.0004C5.83301 27.8236 12.1762 34.1668 19.9994 34.1668C27.8226 34.1668 34.1659 27.8236 34.1659 20.0004C34.1659 17.4171 33.4625 15.0022 32.2559 12.9172ZM19.3661 18.7504H20.6328C22.5811 18.7504 24.166 20.3354 24.166 22.2837C24.166 24.0353 22.9027 25.477 21.2494 25.7703V27.082C21.2494 27.7719 20.6894 28.3319 19.9994 28.3319C19.3094 28.3319 18.7495 27.7719 18.7495 27.082V25.8336H17.0828C16.3928 25.8336 15.8328 25.2737 15.8328 24.5837C15.8328 23.8937 16.3928 23.3337 17.0828 23.3337H20.6328C21.2027 23.3337 21.6661 22.8704 21.6661 22.3004C21.6661 21.7137 21.2027 21.2504 20.6328 21.2504H19.3661C17.4178 21.2504 15.8328 19.6654 15.8328 17.7171C15.8328 15.9655 17.0961 14.5238 18.7495 14.2305V12.9172C18.7495 12.2272 19.3094 11.6672 19.9994 11.6672C20.6894 11.6672 21.2494 12.2272 21.2494 12.9172V14.1672H22.916C23.606 14.1672 24.166 14.7272 24.166 15.4172C24.166 16.1071 23.606 16.6671 22.916 16.6671H19.3661C18.7961 16.6671 18.3328 17.1305 18.3328 17.7004C18.3328 18.2871 18.7961 18.7504 19.3661 18.7504Z" fill="#4C5BD4"/>
<path d="M38.3327 18.3337C37.4127 18.3337 36.666 19.0804 36.666 20.0003C36.666 29.1902 29.1895 36.6667 19.9997 36.6667C10.8098 36.6667 3.33328 29.1902 3.33328 20.0003C3.33328 10.8105 10.8098 3.33396 19.9997 3.33396C23.0463 3.33396 26.0896 4.18728 28.7162 5.66892L26.5629 7.82222C26.0862 8.29887 25.9429 9.01553 26.2012 9.63885C26.4579 10.2605 27.0662 10.6672 27.7412 10.6672H35.0744C35.9944 10.6672 36.741 9.92051 36.741 9.00053V1.66732C36.741 0.993999 36.3344 0.385676 35.7127 0.127347C35.0877 -0.130982 34.3727 0.0106822 33.8961 0.489007L31.1578 3.22729C27.8745 1.169 23.9879 0.000682325 19.9997 0.000682325C8.97151 0.000682325 0 8.97219 0 20.0003C0 31.0285 8.97151 40 19.9997 40C31.0278 40 39.9993 31.0285 39.9993 20.0003C39.9993 19.0804 39.2527 18.3337 38.3327 18.3337Z" fill="#4C5BD4"/>
</svg>
