<svg width="40" height="40" viewBox="0 0 40 40" fill="none" xmlns="http://www.w3.org/2000/svg">
<path d="M39.4928 8.28979C39.3597 7.87231 39.0222 7.55493 38.5974 7.45239C38.175 7.34741 37.7252 7.47253 37.4176 7.78259L32.1375 13.0627L28.0951 11.9049L26.9373 7.86255L32.2174 2.5824C32.5275 2.27478 32.6526 1.82739 32.5476 1.40259C32.4451 0.977783 32.1277 0.637207 31.7102 0.507202C30.6451 0.170288 29.5074 0 28.3325 0C21.9 0 16.665 5.23254 16.665 11.6675C16.665 13.0298 16.8927 14.3451 17.345 15.5878L1.46484 31.4673C0.52002 32.4127 0 33.6652 0 35C0 36.3348 0.52002 37.5873 1.46729 38.5327C2.41028 39.48 3.66516 40 5 40C6.33484 40 7.58728 39.48 8.53271 38.5327L24.4122 22.6526C25.6549 23.1024 26.9702 23.3325 28.3325 23.3325C34.765 23.3325 40 18.1 40 11.665C40 10.4926 39.8297 9.35486 39.4928 8.28979Z" fill="#4C5BD4"/>
</svg>
