<svg width="47" height="40" viewBox="0 0 47 40" fill="none" xmlns="http://www.w3.org/2000/svg">
<path d="M35.032 8.74015C34.5864 8.74015 34.1424 8.76549 33.7022 8.81629C33.1716 6.6256 32.0066 4.6303 30.3252 3.07282C28.1857 1.09129 25.4007 0 22.483 0C17.1149 0 12.5394 3.66564 11.2807 8.74318C5.03616 8.88312 0 14.0066 0 20.2841C0 26.6498 5.1786 31.8284 11.544 31.8284H13.7006C14.2973 32.7831 14.9607 33.6953 15.6886 34.56C18.5416 37.9489 21.4094 39.4638 21.7252 39.6246C22.2068 39.8702 22.7473 40 23.288 40C23.8257 40 24.3634 39.8716 24.8411 39.6296C25.159 39.4689 28.0295 37.9618 30.8861 34.5731C31.6179 33.7049 32.2848 32.7882 32.8842 31.8284H35.032C41.3974 31.8284 46.576 26.6498 46.576 20.2841C46.576 13.9187 41.3974 8.74015 35.032 8.74015ZM32.8561 27.0818C31.9813 29.3093 30.7612 31.36 29.2297 33.1769C26.6091 36.2857 23.9748 37.64 23.8639 37.6961C23.6829 37.7879 23.4855 37.8337 23.288 37.8337C23.0894 37.8337 22.8909 37.7873 22.7093 37.6947C22.5985 37.6383 19.9655 36.2766 17.3458 33.1649C15.8145 31.346 14.5946 29.295 13.7199 27.0689C12.6314 24.2989 12.0794 21.2541 12.0794 18.0194C12.0794 17.4461 12.4621 16.9432 13.0147 16.7902C19.7459 14.9294 22.4379 12.6963 22.4644 12.6739C22.9433 12.2687 23.6364 12.2641 24.1116 12.6739C24.1341 12.6926 26.9082 14.9511 33.5612 16.7902C34.1139 16.9432 34.4966 17.4461 34.4966 18.0194C34.4964 21.2611 33.9446 24.3102 32.8561 27.0818Z" fill="#4C5BD4"/>
<path d="M19.2941 31.5226C20.8873 33.4153 22.4645 34.5564 23.2846 35.0796L23.2854 15.2168C22.0301 16.0453 19.2865 17.5951 14.6445 18.9753C14.8238 23.8506 16.3857 28.0679 19.2941 31.5226Z" fill="#4C5BD4"/>
</svg>
