<svg width="44" height="40" viewBox="0 0 44 40" fill="none" xmlns="http://www.w3.org/2000/svg">
<path d="M12.0308 13.8687V10.3689H20.3926V1.56964C19.1978 0.588932 17.6705 0 16.0086 0C12.5969 0 9.75377 2.48011 9.18768 5.73193C8.87037 5.68032 8.54798 5.65409 8.22559 5.65409C4.92046 5.65409 2.23134 8.34236 2.23134 11.6475C2.23134 12.5757 2.44796 13.4862 2.85497 14.3078C1.06617 15.6651 0 17.7746 0 20.0838C0 22.497 1.21763 24.7478 3.17736 26.0873C3.03012 26.6669 2.95566 27.2635 2.95566 27.871C2.95566 31.5942 5.77086 34.6708 9.38399 35.0863C10.2547 37.9506 12.9362 40 16.0086 40C17.6705 40 19.1978 39.4111 20.3926 38.4304V29.6311H12.0308V26.1313H9.94331V23.5928H12.0308V21.2693H9.94331V18.7308H12.0308V16.4072H9.94331V13.8687H12.0308Z" fill="#4C5BD4"/>
<path d="M22.9283 17.7432H21.6591H20.3898H19.4023V22.2566H20.3898H21.6591H22.9283H23.9158V17.7432H22.9283Z" fill="#4C5BD4"/>
<path d="M22.9292 12.9072H21.66H20.3907H14.5674V27.0924H20.3907H21.66H22.9292H28.7525V12.9072H22.9292ZM26.4552 24.795H22.9292H21.66H20.3907H16.8647V15.2046H20.3907H21.66H22.9292H26.4552V24.795Z" fill="#4C5BD4"/>
<path d="M43.3267 20.0838C43.3267 17.7746 42.2605 15.6651 40.4717 14.3078C40.8787 13.4862 41.0954 12.5757 41.0954 11.6475C41.0954 8.34236 38.4062 5.65409 35.1011 5.65409C34.7787 5.65409 34.4563 5.68032 34.139 5.73193C33.5729 2.48011 30.7298 0 27.3181 0C25.6562 0 24.1289 0.588932 22.9341 1.56964V10.3689H31.2959V13.8687H33.3834V16.4072H31.2959V18.7308H33.3834V21.2693H31.2959V23.5928H33.3834V26.1313H31.2959V29.6311H22.9341V38.4304C24.1289 39.4111 25.6562 40 27.3181 40C30.3905 40 33.072 37.9506 33.9427 35.0863C37.5558 34.6708 40.371 31.5942 40.371 27.871C40.371 27.2635 40.2966 26.6669 40.1493 26.0873C42.1091 24.7478 43.3267 22.497 43.3267 20.0838Z" fill="#4C5BD4"/>
</svg>
