<svg width="40" height="40" viewBox="0 0 40 40" fill="none" xmlns="http://www.w3.org/2000/svg">
<path d="M20 0C13.1075 0 7.5 5.6075 7.5 12.5C7.5 19.3925 13.1075 25 20 25C26.8925 25 32.5 19.3925 32.5 12.5C32.5 5.6075 26.8925 0 20 0ZM19.3675 11.25H20.635C22.5825 11.25 24.1675 12.835 24.1675 14.7825C24.1675 16.535 22.905 17.975 21.25 18.27V19.5825C21.25 20.2725 20.69 20.8325 20 20.8325C19.31 20.8325 18.75 20.2725 18.75 19.5825V18.3325H17.0825C16.3925 18.3325 15.8325 17.7725 15.8325 17.0825C15.8325 16.3925 16.3925 15.8325 17.0825 15.8325H20.6325C21.2025 15.8325 21.665 15.3675 21.665 14.8C21.665 14.215 21.2 13.75 20.6325 13.75H19.365C17.4175 13.75 15.8325 12.165 15.8325 10.2175C15.8325 8.465 17.095 7.025 18.75 6.73V5.4175C18.75 4.7275 19.31 4.1675 20 4.1675C20.69 4.1675 21.25 4.7275 21.25 5.4175V6.6675H22.9175C23.6075 6.6675 24.1675 7.2275 24.1675 7.9175C24.1675 8.6075 23.6075 9.1675 22.9175 9.1675H19.3675C18.7975 9.1675 18.335 9.6325 18.335 10.2C18.3325 10.785 18.7975 11.25 19.3675 11.25Z" fill="#4C5BD4"/>
<path d="M40 25.0949C40 25.0924 40 25.0899 40 25.0874C40 25.0849 40 25.0824 40 25.0799V24.9999C40 24.9549 39.9775 24.9174 39.975 24.8749C39.855 22.3674 37.6425 20.2024 33.655 18.6724C31.2975 23.8699 26.07 27.4999 20 27.4999C13.93 27.4999 8.705 23.8699 6.345 18.6724C2.2425 20.2449 0 22.4874 0 25.0874V31.6049C0 31.6924 0.0375011 31.7699 0.0500011 31.8549C0.577501 37.1999 10.3325 39.9999 20 39.9999C29.59 39.9999 39.265 37.2449 39.935 31.9849C39.9575 31.8774 40 31.7799 40 31.6674V31.4149C40 31.4124 40 31.4099 40 31.4074C40 31.4049 40 31.4049 40 31.4024V25.0949ZM36.6675 31.4124C36.66 33.5574 30.1675 36.6674 20 36.6674C9.825 36.6674 3.3325 33.5524 3.3325 31.4074V30.0374C7.1075 32.4374 13.57 33.6799 20 33.6799C26.4275 33.6799 32.8925 32.4374 36.6675 30.0399V31.4124Z" fill="#4C5BD4"/>
</svg>
