<svg width="47" height="47" viewBox="0 0 47 47" fill="none" xmlns="http://www.w3.org/2000/svg">
<path fill-rule="evenodd" clip-rule="evenodd" d="M45.6287 28.488C45.9716 26.9453 46.143 25.3683 46.143 23.7571C46.143 23.2086 46.1087 22.6601 46.0744 22.1116C45.1831 10.6958 35.55 1.6798 23.7228 1.6798C22.4201 1.6798 21.1517 1.78264 19.9176 2.02261C17.895 0.719913 15.5295 0 12.9927 0C5.82786 0 0 5.7593 0 12.8213C0 15.1867 0.651349 17.3807 1.78264 19.3005C1.61123 20.089 1.50839 20.9117 1.43982 21.7345C1.37126 22.3859 1.33698 23.0715 1.33698 23.7228C1.33698 35.9271 11.3815 45.8344 23.7571 45.8344C25.1627 45.8344 26.5339 45.6973 27.8709 45.4573C29.6878 46.4172 31.8133 47 34.0073 47C41.2064 47 47 41.275 47 34.1787C46.9657 32.1218 46.4858 30.202 45.6287 28.488ZM35.2414 34.3158C34.213 35.7557 32.6703 36.9212 30.682 37.7097C28.7279 38.5325 26.3625 38.9438 23.6885 38.9438C20.4661 38.9438 17.7578 38.3953 15.6667 37.2983C14.1583 36.5098 12.9241 35.4128 11.9643 34.0759C11.0044 32.7389 10.5244 31.3676 10.5244 30.0649C10.5244 29.2422 10.833 28.5565 11.45 27.9737C12.0671 27.391 12.8556 27.1167 13.7812 27.1167C14.5697 27.1167 15.221 27.3567 15.7695 27.8023C16.2837 28.248 16.7294 28.8651 17.0722 29.6878C17.4836 30.5791 17.895 31.3333 18.3749 31.9504C18.8206 32.5332 19.4376 33.0131 20.2604 33.3902C21.0832 33.7673 22.1802 33.973 23.5171 33.973C25.3683 33.973 26.911 33.5959 28.0423 32.8074C29.1736 32.0532 29.7221 31.1619 29.7221 30.0649C29.7221 29.1736 29.4478 28.5222 28.8651 27.9737C28.248 27.4252 27.4595 26.9796 26.4654 26.671C25.4369 26.3625 24.0656 26.0197 22.3516 25.6769C20.0204 25.1969 18.0321 24.6142 16.4894 23.9628C14.8782 23.2772 13.5755 22.3516 12.6156 21.186C12.3071 20.8089 12.0671 20.3975 11.8614 19.9519C11.4158 18.992 11.1758 17.9635 11.1758 16.7637C11.1758 15.0839 11.69 13.5755 12.7185 12.3071C13.7126 11.0044 15.1867 10.0102 17.0722 9.32458C18.9234 8.63895 21.1517 8.29613 23.6543 8.29613C25.6426 8.29613 27.4252 8.53611 28.8651 8.98177C30.3392 9.42743 31.5733 10.0445 32.5675 10.7987C33.5616 11.5529 34.2815 12.3756 34.7615 13.1984C35.2414 14.0554 35.4814 14.9125 35.4814 15.7352C35.4814 16.5237 35.1729 17.2436 34.5558 17.8607C33.9387 18.4778 33.1503 18.8206 32.2589 18.8206C31.4362 18.8206 30.7848 18.6149 30.3392 18.2378C29.9278 17.8607 29.4821 17.3122 29.0022 16.4894C28.4537 15.461 27.7681 14.6039 26.9796 14.0212C26.2254 13.4726 24.957 13.1641 23.2429 13.1641C21.6317 13.1641 20.329 13.5069 19.3691 14.124C18.4435 14.7411 17.9978 15.4267 17.9978 16.2495C17.9978 16.7637 18.1349 17.1751 18.4435 17.5522C18.7863 17.9292 19.1977 18.2721 19.7805 18.5463C20.3632 18.8206 20.9803 19.0605 21.5974 19.2319C21.7002 19.2662 21.8373 19.3005 21.9745 19.3348C22.6258 19.5062 23.5171 19.7119 24.6827 19.9861C26.4996 20.3632 28.1794 20.8089 29.6535 21.2888C31.1276 21.7688 32.4303 22.3516 33.4931 23.0029C34.5558 23.6885 35.4128 24.5799 36.0299 25.6426C36.647 26.7053 36.9555 28.008 36.9555 29.5507C36.7841 31.1962 36.2699 32.8417 35.2414 34.3158Z" fill="#31C4ED"/>
</svg>
