<svg width="34" height="34" viewBox="0 0 34 34" fill="none" xmlns="http://www.w3.org/2000/svg">
<path d="M11.9407 26.6559L6.86828 29.4227C6.57061 29.585 6.3031 29.7845 6.0542 30.002C9.01156 32.4955 12.8292 33.9999 17.0003 33.9999C21.1406 33.9999 24.9338 32.518 27.8829 30.0584C27.6109 29.8288 27.3158 29.6222 26.9886 29.4593L21.5569 26.7437C20.8551 26.3928 20.4118 25.6756 20.4118 24.8911V22.76C20.5645 22.5861 20.739 22.3629 20.9257 22.0992C21.666 21.0536 22.226 19.9033 22.6141 18.6967C23.3108 18.4817 23.824 17.8383 23.824 17.0736V14.7988C23.824 14.2985 23.6014 13.8513 23.2556 13.5383V10.2499C23.2556 10.2499 23.9312 5.13257 17.0009 5.13257C10.0707 5.13257 10.7462 10.2499 10.7462 10.2499V13.5383C10.3998 13.8513 10.1778 14.2985 10.1778 14.7988V17.0736C10.1778 17.6728 10.4928 18.2001 10.9643 18.5048C11.5327 20.9791 13.021 22.76 13.021 22.76V24.8385C13.0204 25.5954 12.6059 26.2928 11.9407 26.6559Z" fill="#E7ECED"/>
<path d="M17.2906 0.0025315C7.90337 -0.157846 0.162911 7.32216 0.00253318 16.7094C-0.0885612 22.032 2.28374 26.8157 6.06095 29.997C6.30793 29.7814 6.57288 29.5838 6.86733 29.4235L11.9397 26.6566C12.605 26.2935 13.0194 25.5962 13.0194 24.8379V22.7594C13.0194 22.7594 11.5305 20.9786 10.9627 18.5043C10.4919 18.1996 10.1762 17.6729 10.1762 17.0731V14.7983C10.1762 14.2979 10.3988 13.8508 10.7446 13.5377V10.2494C10.7446 10.2494 10.0691 5.13204 16.9993 5.13204C23.9296 5.13204 23.2541 10.2494 23.2541 10.2494V13.5377C23.6005 13.8508 23.8224 14.2979 23.8224 14.7983V17.0731C23.8224 17.8378 23.3092 18.4812 22.6125 18.6961C22.2244 19.9028 21.6644 21.053 20.9241 22.0987C20.7374 22.3624 20.5629 22.5856 20.4102 22.7594V24.8905C20.4102 25.6751 20.8535 26.393 21.5553 26.7432L26.987 29.4587C27.3129 29.6217 27.6073 29.8276 27.8787 30.0566C31.5417 27.0018 33.9082 22.4342 33.9961 17.2906C34.1578 7.90336 26.6784 0.162909 17.2906 0.0025315Z" fill="#556080"/>
</svg>
